<!DOCTYPE svg PUBLIC "-//W3C//DTD SVG 1.1//EN" "http://www.w3.org/Graphics/SVG/1.1/DTD/svg11.dtd">
<!-- Uploaded to: SVG Repo, www.svgrepo.com, Transformed by: SVG Repo Mixer Tools -->
<svg version="1.1" id="Uploaded to svgrepo.com" xmlns="http://www.w3.org/2000/svg" xmlns:xlink="http://www.w3.org/1999/xlink" width="235px" height="235px" viewBox="0 0 32.00 32.00" xml:space="preserve" fill="#000000" stroke="#000000" stroke-width="0.22400000000000003">
<g id="SVGRepo_bgCarrier" stroke-width="0"/>
<g id="SVGRepo_tracerCarrier" stroke-linecap="round" stroke-linejoin="round"/>
<g id="SVGRepo_iconCarrier"> <style type="text/css"> .sharpcorners_een{fill:#ffd500;} .st0{fill:#6c7c7f;} </style> <path class="sharpcorners_een" d="M10,6l6,2l-6,2l-2,6l-2-6L0,8l6-2l2-6L10,6z M6,22l-1,3l-3,1l3,1l1,3l1-3l3-1l-3-1L6,22z M26,2 l-1,3l-3,1l3,1l1,3l1-3l3-1l-3-1L26,2z M20,8l-3,9l-9,3l9,3l3,9l4-9l8-3l-9-3L20,8z"/> </g>
</svg>